<svg width="39" height="20" viewBox="0 0 39 20" fill="none" xmlns="http://www.w3.org/2000/svg">
<path d="M15.7127 0.538118C16.2135 0.896862 16.4539 1.33035 16.4338 1.83857C16.4121 2.34679 16.1509 2.78027 15.6501 3.13902L8.57624 8.20628L36.496 8.20628C37.2055 8.20628 37.8006 8.37848 38.2813 8.72287C38.7604 9.06607 39 9.49178 39 10C39 10.5082 38.7604 10.9345 38.2813 11.2789C37.8006 11.6221 37.2055 11.7937 36.496 11.7937L8.57624 11.7937L15.7127 16.9058C16.2135 17.2646 16.4639 17.6909 16.4639 18.1848C16.4639 18.6774 16.2135 19.1031 15.7127 19.4619C15.2119 19.8206 14.6168 20 13.9273 20C13.2396 20 12.6453 19.8206 12.1445 19.4619L0.688606 11.2556C0.438206 11.0762 0.260418 10.8819 0.155247 10.6726C0.0517502 10.4634 0 10.2392 0 10C0 9.76084 0.0517502 9.53662 0.155247 9.32736C0.260418 9.11809 0.438206 8.92377 0.688606 8.7444L12.2071 0.493277C12.6661 0.164427 13.2396 0 13.9273 0C14.6168 0 15.2119 0.179375 15.7127 0.538118Z" fill="white"/>
</svg>
